
<svg xmlns="http://www.w3.org/2000/svg" width="60" height="60" viewBox="0 0 60 60" opacity="0.1">
  <g fill="none" stroke="#6E59A5" stroke-width="1">
    <circle cx="10" cy="10" r="3" />
    <circle cx="30" cy="10" r="3" />
    <circle cx="50" cy="10" r="3" />
    <circle cx="10" cy="30" r="3" />
    <circle cx="30" cy="30" r="5" />
    <circle cx="50" cy="30" r="3" />
    <circle cx="10" cy="50" r="3" />
    <circle cx="30" cy="50" r="3" />
    <circle cx="50" cy="50" r="3" />
    
    <line x1="13" y1="10" x2="27" y2="10" />
    <line x1="33" y1="10" x2="47" y2="10" />
    <line x1="10" y1="13" x2="10" y2="27" />
    <line x1="10" y1="33" x2="10" y2="47" />
    <line x1="13" y1="50" x2="27" y2="50" />
    <line x1="33" y1="50" x2="47" y2="50" />
    <line x1="50" y1="13" x2="50" y2="27" />
    <line x1="50" y1="33" x2="50" y2="47" />
    
    <line x1="14" y1="14" x2="26" y2="26" />
    <line x1="34" y1="14" x2="46" y2="26" />
    <line x1="14" y1="46" x2="26" y2="34" />
    <line x1="34" y1="46" x2="46" y2="34" />
  </g>
</svg>
